HIERARCHY
ROOT Hips
{
	OFFSET 0.00000 0.00000 0.00000
	CHANNELS 6 Xposition Yposition Zposition Zrotation Yrotation Xrotation 
	JOINT LHipJoint
	{
		OFFSET 0 0 0
		CHANNELS 3 Zrotation Yrotation Xrotation
		JOINT LeftHip
		{
			OFFSET 1.39187 -1.60231 0.69152
			CHANNELS 3 Zrotation Yrotation Xrotation
			JOINT LeftKnee
			{
				OFFSET 2.43314 -6.68499 0.00000
				CHANNELS 3 Zrotation Yrotation Xrotation
				JOINT LeftAnkle
				{
					OFFSET 2.32059 -6.37578 0.00000
					CHANNELS 3 Zrotation Yrotation Xrotation
					JOINT LeftToe
					{
						OFFSET 0.23021 -0.63250 1.71305
						CHANNELS 3 Zrotation Yrotation Xrotation
						End Site
						{
							OFFSET 0.00000 -0.00000 0.91647
						}
					}
				}
			}
		}
	}
	JOINT RHipJoint
	{
		OFFSET 0 0 0
		CHANNELS 3 Zrotation Yrotation Xrotation
		JOINT RightHip
		{
			OFFSET -1.19407 -1.60231 0.69152
			CHANNELS 3 Zrotation Yrotation Xrotation
			JOINT RightKnee
			{
				OFFSET -2.44411 -6.71513 0.00000
				CHANNELS 3 Zrotation Yrotation Xrotation
				JOINT RightAnkle
				{
					OFFSET -2.31924 -6.37207 0.00000
					CHANNELS 3 Zrotation Yrotation Xrotation
					JOINT RightToe
					{
						OFFSET -0.19473 -0.53502 1.87724
						CHANNELS 3 Zrotation Yrotation Xrotation
						End Site
						{
							OFFSET -0.00000 -0.00000 0.98293
						}
					}
				}
			}
		}
	}
	JOINT lowerback
	{
		OFFSET 0 0 0
		CHANNELS 3 Zrotation Yrotation Xrotation
		JOINT Chest
		{
			OFFSET -0.01120 1.87307 0.09613
			CHANNELS 3 Zrotation Yrotation Xrotation
			JOINT Chest2
			{
				OFFSET 0.01099 1.87818 0.04834
				CHANNELS 3 Zrotation Yrotation Xrotation
				JOINT lowerneck
				{
					OFFSET 0 0 0
					CHANNELS 3 Zrotation Yrotation Xrotation
					JOINT Neck
					{
						OFFSET 0.01702 1.40324 -0.12579
						CHANNELS 3 Zrotation Yrotation Xrotation
						JOINT Head
						{
							OFFSET -0.04239 1.38587 -0.01614
							CHANNELS 3 Zrotation Yrotation Xrotation
							End Site
							{
								OFFSET -0.02510 1.47031 -0.00154
							}
						}
					}
				}
				JOINT LeftCollar
				{
					OFFSET 0 0 0
					CHANNELS 3 Zrotation Yrotation Xrotation
					JOINT LeftShoulder
					{
						OFFSET 2.95699 0.62343 0.11653
CHANNELS 3 Zrotation Xrotation Yrotation
						JOINT LeftElbow
						{
OFFSET 0 -4.683820 -0.000000
CHANNELS 3 Zrotation Xrotation Yrotation
							JOINT LeftWrist
							{
OFFSET 0 -2.981240 -0.000000
CHANNELS 3 Zrotation Xrotation Yrotation
								JOINT lhand
								{
									OFFSET 0 0 0
CHANNELS 3 Zrotation Xrotation Yrotation
									JOINT LFingers
									{
OFFSET 0 -0.707590 0.000000
CHANNELS 3 Zrotation Xrotation Yrotation
										End Site
										{
OFFSET 0 -0.570480 0.000000
										}
									}
								}
								JOINT LThumb
								{
OFFSET 0 0.000000 0.000000
CHANNELS 3 Zrotation Xrotation Yrotation
									End Site
									{
OFFSET 0 -0.579190 0.579190
									}
								}
							}
						}
					}
				}
				JOINT RightCollar
				{
					OFFSET 0 0 0
					CHANNELS 3 Zrotation Yrotation Xrotation
					JOINT RightShoulder
					{
						OFFSET -2.99027 0.88714 -0.02793
CHANNELS 3 Zrotation Xrotation Yrotation
						JOINT RightElbow
						{
OFFSET 0 -4.758760 -0.000000
CHANNELS 3 Zrotation Xrotation Yrotation
							JOINT RightWrist
							{
OFFSET 0 -2.932930 -0.000000
CHANNELS 3 Zrotation Xrotation Yrotation
								JOINT rhand
								{
									OFFSET 0 0 0
CHANNELS 3 Zrotation Xrotation Yrotation
									JOINT RFingers
									{
OFFSET 0 -0.831750 0.000000
CHANNELS 3 Zrotation Xrotation Yrotation
										End Site
										{
OFFSET 0 -0.670580 0.000000
										}
									}
								}
								JOINT RThumb
								{
OFFSET 0 0.000000 0.000000
CHANNELS 3 Zrotation Xrotation Yrotation
									End Site
									{
OFFSET 0 -0.680820 0.680820
									}
								}
							}
						}
					}
				}
			}
		}
	}
}
MOTION
Frames: 8
Frame Time: 0.008333333333333333
8.226100 27.224800 0.294200 171.855000 -87.949900 -159.706000 0.000000 0.000000 0.000000 -19.052700 -15.823000 -13.659900 2.007500 8.881600 25.425600 0.803800 10.193200 -23.526100 0.368900 3.901300 10.799300 0.000000 0.000000 0.000000 18.403300 17.071100 -14.291000 -1.908400 -8.672700 24.776700 1.055700 -19.536900 -15.970100 -0.117600 2.211100 -6.089500 -3.560300 -1.225900 -15.194700 -0.380700 -1.285700 -4.365600 1.370900 -0.742700 3.944700 -7.839400 -2.885300 0.345000 7.511500 -4.629700 11.234100 3.424900 -2.406100 3.628300 -0.000000 0.000000 0.000000 90.126600 -36.329800 19.176400 115.146600 -57.470300 81.592700 37.074000 30.167000 -27.954300 0.000000 0.000000 0.000000 -7.125000 0.000000 0.000000 8.578400 63.411400 -3.846000 -0.000000 0.000000 0.000000 -57.929400 -27.604800 -11.211400 -142.075700 -46.790900 -103.089600 -23.395700 -8.471800 -8.346300 0.000000 0.000000 0.000000 7.125000 0.000000 -0.000000 2.508000 20.901600 1.449600
8.228708 27.234073 0.293826 170.816496 -87.968825 -158.673366 0.000000 0.000000 0.000000 -19.072610 -15.915772 -13.843462 2.033518 8.935524 25.593931 0.790236 10.236336 -23.447546 0.361232 3.861052 10.686039 0.000000 0.000000 0.000000 18.375929 17.009803 -14.222020 -1.882002 -8.615887 24.601114 1.066419 -19.520677 -15.715436 -0.134538 2.363819 -6.512188 -3.618932 -1.202599 -14.815785 -0.374281 -1.272716 -4.538669 1.422176 -0.731062 3.558561 -7.619300 -2.877958 1.071306 7.285417 -4.626684 10.762976 3.331704 -2.419034 3.357425 0.000000 0.000000 0.000000 90.094780 -36.336440 18.997381 114.781417 -57.547333 81.284569 37.154765 30.138750 -27.817256 0.000000 0.000000 0.000000 -7.125000 0.000000 0.000000 8.711926 63.280222 -3.879602 0.000000 0.000000 0.000000 -58.049520 -27.463664 -11.183583 -142.066169 -46.797011 -103.082615 -23.190670 -8.444954 -8.346831 0.000000 0.000000 0.000000 7.125000 0.000000 0.000000 2.656190 20.915190 1.534603
8.240501 27.235544 0.299876 169.697668 -88.007913 -157.506806 0.000000 0.000000 0.000000 -19.109481 -15.993835 -13.994729 2.053707 8.977116 25.723821 0.785725 10.265403 -23.434978 0.351419 3.808866 10.539524 0.000000 0.000000 0.000000 18.291359 16.731163 -14.380341 -1.872421 -8.595111 24.536799 1.021995 -19.227411 -15.688489 -0.131354 2.336160 -6.435717 -3.543734 -1.192042 -14.433582 -0.407743 -1.294251 -4.707488 1.350139 -0.736618 3.174283 -7.718224 -2.733534 1.592434 7.488761 -4.469410 10.444177 3.425276 -2.349510 3.169244 0.000000 0.000000 0.000000 90.212103 -36.362042 19.038278 114.506188 -57.604387 81.052263 37.018825 29.956639 -27.684192 0.000000 0.000000 0.000000 -7.125000 0.000000 0.000000 8.549644 63.091638 -3.768999 0.000000 0.000000 0.000000 -58.180460 -27.389403 -11.154407 -141.992996 -46.843820 -103.029244 -22.960968 -8.239051 -8.265902 0.000000 0.000000 0.000000 7.125000 0.000000 0.000000 2.820424 21.018268 1.622663
8.251387 27.239383 0.304395 167.773888 -87.998524 -155.459023 0.000000 0.000000 0.000000 -19.159900 -16.037221 -14.283226 2.067871 9.006065 25.814236 0.777313 10.262219 -23.358778 0.341769 3.756753 10.393200 0.000000 0.000000 0.000000 18.135297 16.597563 -14.626420 -1.872175 -8.594555 24.535182 0.993827 -19.059055 -15.728287 -0.120777 2.239612 -6.168297 -3.487002 -1.130124 -14.794315 -0.497705 -1.176788 -4.347493 1.233575 -0.684032 3.739454 -7.682610 -2.722537 1.443878 7.579029 -4.407072 9.948203 3.447543 -2.303242 3.041759 0.000000 0.000000 0.000000 91.046125 -36.704316 20.036439 114.055313 -57.696270 80.671354 36.942146 29.794658 -27.500859 0.000000 0.000000 0.000000 -7.125000 0.000000 0.000000 8.476546 62.863365 -3.690842 0.000000 0.000000 0.000000 -58.653264 -27.695546 -11.945193 -141.857418 -46.930146 -102.930271 -22.441756 -7.843145 -8.021233 0.000000 0.000000 0.000000 7.125000 0.000000 0.000000 3.190970 21.316502 1.815439
8.258880 27.240155 0.306441 169.668573 -87.966520 -157.338284 0.000000 0.000000 0.000000 -19.087717 -15.988910 -14.404878 2.074332 9.019181 25.855441 0.773551 10.268003 -23.331523 0.336176 3.726128 10.307309 0.000000 0.000000 0.000000 18.168226 16.646648 -14.740136 -1.889269 -8.631560 24.649463 0.977311 -19.009061 -15.896262 -0.106753 2.106813 -5.800893 -3.404637 -1.025689 -14.687839 -0.486811 -1.048585 -4.273754 1.222261 -0.618920 3.753051 -7.772850 -2.617001 1.210502 7.772666 -4.255949 9.901096 3.523082 -2.218075 3.059215 0.000000 0.000000 0.000000 91.377376 -37.011136 20.424890 113.624660 -57.782282 80.307223 36.959904 29.512007 -27.261926 0.000000 0.000000 0.000000 -7.125000 0.000000 0.000000 8.539727 62.598999 -3.665785 0.000000 0.000000 0.000000 -59.004393 -27.674669 -12.206898 -141.794061 -46.970306 -102.884034 -22.457434 -8.187314 -8.222360 0.000000 0.000000 0.000000 7.125000 0.000000 0.000000 3.183867 21.098720 1.826552
8.266632 27.230103 0.306777 168.855855 -87.864472 -156.497062 0.000000 0.000000 0.000000 -19.142897 -15.927927 -14.415621 2.083484 9.037804 25.913712 0.785456 10.279483 -23.445069 0.341007 3.752400 10.381145 0.000000 0.000000 0.000000 18.081181 16.641907 -14.894996 -1.903733 -8.662625 24.745557 0.965445 -18.907240 -15.825111 -0.118594 2.214873 -6.100026 -3.448895 -0.958979 -14.535551 -0.505833 -0.962721 -4.331926 1.245503 -0.574647 3.605740 -7.698357 -2.351680 1.237214 7.840096 -3.896501 9.782765 3.543282 -2.034904 2.989888 0.000000 0.000000 0.000000 91.502856 -37.168704 20.585277 113.348022 -57.836530 80.073081 36.727261 29.163490 -27.215929 0.000000 0.000000 0.000000 -7.125000 0.000000 0.000000 8.237318 62.481834 -3.512305 0.000000 0.000000 0.000000 -59.207916 -27.547171 -12.268638 -141.776950 -46.981132 -102.871538 -22.900887 -8.570486 -8.699190 0.000000 0.000000 0.000000 7.125000 0.000000 0.000000 2.875122 20.553993 1.683510
8.273346 27.223082 0.305749 169.741022 -87.856062 -157.363396 0.000000 0.000000 0.000000 -19.091988 -15.890781 -14.435527 2.087150 9.045287 25.937087 0.797903 10.223571 -23.502809 0.348115 3.790932 10.489292 0.000000 0.000000 0.000000 18.095473 16.676741 -15.035925 -1.926847 -8.711986 24.898470 0.983516 -18.954598 -15.620253 -0.144051 2.445327 -6.738186 -3.402056 -0.940157 -14.758306 -0.527380 -0.918486 -4.098306 1.198928 -0.555913 3.969496 -7.644869 -2.283703 1.095332 7.896739 -3.787095 9.647765 3.553317 -1.971353 2.964124 0.000000 0.000000 0.000000 91.963299 -37.214607 21.235572 113.209289 -57.863462 79.955661 36.209766 28.735636 -27.254827 0.000000 0.000000 0.000000 -7.125000 0.000000 0.000000 7.546485 62.381402 -3.198827 0.000000 0.000000 0.000000 -59.458048 -27.709006 -12.557605 -141.682649 -47.040775 -102.802525 -23.202576 -8.717332 -8.901777 0.000000 0.000000 0.000000 7.125000 0.000000 0.000000 2.663167 20.313847 1.574519
8.280919 27.224569 0.305200 168.265513 -87.878405 -155.804930 0.000000 0.000000 0.000000 -19.103589 -15.897042 -14.587816 2.092171 9.055494 25.969036 0.809586 10.104576 -23.497638 0.353259 3.818549 10.566733 0.000000 0.000000 0.000000 18.005379 16.678055 -15.248096 -1.948372 -8.757638 25.040144 0.983775 -18.953476 -15.612542 -0.145124 2.454687 -6.764051 -3.435104 -0.946932 -14.865168 -0.564199 -0.908347 -3.980371 1.178139 -0.552923 4.151108 -7.422614 -2.279694 0.852464 7.693197 -3.760723 9.819809 3.451451 -1.951464 3.046489 0.000000 0.000000 0.000000 92.290249 -37.217431 21.643439 113.052436 -57.893576 79.822784 35.592229 28.210026 -27.090698 0.000000 0.000000 0.000000 -7.125000 0.000000 0.000000 6.771549 62.026568 -2.813080 0.000000 0.000000 0.000000 -59.670846 -27.839615 -12.872947 -141.679460 -47.042789 -102.800193 -22.930235 -8.094325 -8.461260 0.000000 0.000000 0.000000 7.125000 0.000000 0.000000 2.847773 20.809098 1.651413
